<?xml version="1.0" encoding="UTF-8"?>
<svg xmlns="http://www.w3.org/2000/svg" xmlns:xlink="http://www.w3.org/1999/xlink" width="50pt" height="50pt" viewBox="0 0 50 50" version="1.1">
<g id="surface1">
<path style=" stroke:none;fill-rule:nonzero;fill:rgb(92.156863%,52.54902%,74.901961%);fill-opacity:1;" d="M 0 25 C 0 38.808594 11.191406 50 25 50 C 38.808594 50 50 38.808594 50 25 C 50 11.191406 38.808594 0 25 0 C 11.191406 0 0 11.191406 0 25 Z M 0 25 "/>
<path style=" stroke:none;fill-rule:nonzero;fill:rgb(83.921569%,43.921569%,67.843137%);fill-opacity:1;" d="M 50 25 C 50 22.078125 49.492188 19.269531 48.570312 16.664062 C 48.539062 16.628906 41.082031 9.160156 41.027344 9.117188 C 40.90625 8.949219 40.714844 8.835938 40.492188 8.835938 L 9.507812 8.835938 C 9.136719 8.835938 8.835938 9.136719 8.835938 9.507812 L 8.835938 40.492188 C 8.835938 40.714844 8.949219 40.902344 9.117188 41.027344 C 9.160156 41.082031 16.503906 48.425781 16.5625 48.46875 C 16.589844 48.507812 16.628906 48.539062 16.664062 48.570312 C 19.273438 49.492188 22.074219 50 25 50 C 38.808594 50 50 38.808594 50 25 Z M 50 25 "/>
<path style=" stroke:none;fill-rule:nonzero;fill:rgb(95.686275%,96.470588%,97.647059%);fill-opacity:1;" d="M 16.917969 25.671875 L 24.328125 25.671875 L 24.328125 33.082031 C 24.328125 33.453125 24.628906 33.757812 25 33.757812 C 25.371094 33.757812 25.671875 33.453125 25.671875 33.082031 L 25.671875 25.671875 L 33.082031 25.671875 C 33.453125 25.671875 33.757812 25.371094 33.757812 25 C 33.757812 24.628906 33.453125 24.328125 33.082031 24.328125 L 25.671875 24.328125 L 25.671875 16.917969 C 25.671875 16.546875 25.371094 16.242188 25 16.242188 C 24.628906 16.242188 24.328125 16.546875 24.328125 16.917969 L 24.328125 24.328125 L 16.917969 24.328125 C 16.546875 24.328125 16.242188 24.628906 16.242188 25 C 16.242188 25.371094 16.546875 25.671875 16.917969 25.671875 Z M 16.917969 25.671875 "/>
<path style=" stroke:none;fill-rule:nonzero;fill:rgb(95.686275%,96.470588%,97.647059%);fill-opacity:1;" d="M 40.492188 8.835938 L 9.507812 8.835938 C 9.136719 8.835938 8.835938 9.136719 8.835938 9.507812 L 8.835938 40.492188 C 8.835938 40.863281 9.136719 41.164062 9.507812 41.164062 L 40.492188 41.164062 C 40.863281 41.164062 41.164062 40.863281 41.164062 40.492188 L 41.164062 9.507812 C 41.164062 9.136719 40.863281 8.835938 40.492188 8.835938 Z M 39.816406 39.816406 L 10.183594 39.816406 L 10.183594 10.183594 L 39.816406 10.183594 Z M 39.816406 39.816406 "/>
</g>
</svg>
